<?xml version="1.0" encoding="utf-8"?>
<!-- Generator: Adobe Illustrator 25.4.1, SVG Export Plug-In . SVG Version: 6.00 Build 0)  -->
<svg version="1.1" id="Layer_1" xmlns="http://www.w3.org/2000/svg" xmlns:xlink="http://www.w3.org/1999/xlink" x="0px" y="0px"
	 viewBox="0 0 1288.8 344.1" style="enable-background:new 0 0 1288.8 344.1;" xml:space="preserve">
<style type="text/css">
	.st0{fill:#F4F4F4;stroke:#F4F4F4;stroke-width:2;stroke-miterlimit:10;}
	.st1{fill:#4E5CA6;}
	.st2{enable-background:new    ;}
	.st3{fill:#303031;}
</style>
<path class="st0" d="M97.9,7.5h150.5c49.2,0,89.1,39.9,89.1,89.1v150.5c0,49.2-39.9,89.1-89.1,89.1H97.9
	c-49.2,0-89.1-39.9-89.1-89.1V96.6C8.8,47.4,48.7,7.5,97.9,7.5z"/>


<path class="st1" d="M 246.183 236.219 C 248.584 236.616 264.366 278.664 254.696 278.13 C 245.027 277.595 219.716 291.179 206.838 290.335 C 193.959 289.491 174.748 295.45 157.986 296.958 C 141.224 298.467 131.175 295.711 125.899 294.343 L 109.313 285.069 C 116.213 285.655 102.76 282.112 101.186 274.243 C 99.833 267.482 99.196 269.182 98.82 259.825 C 98.444 250.468 99.484 251.986 99.679 236.44 C 99.911 217.918 99.942 224.964 99.234 219.622 C 97.746 208.398 95.557 198.742 97.789 196.592 C 100.021 194.442 96.455 180.035 96.455 176.322 L 94.555 162.95 C 94.555 158.651 96.171 158.547 93.058 148.65 C 81.801 112.854 94.93 123.545 89.157 130.11 C 88.875 130.43 88.203 115.187 88.774 116.005 C 87.118 112.801 86.497 122.131 86.852 104.925 C 87.207 87.719 85.428 98.993 89.011 84.873 L 97.875 73.955 C 103.641 65.373 103.558 70.231 116.951 59.678 C 130.344 49.126 131.73 56.209 150.585 52.108 C 159.393 50.192 176.7 48.713 185.731 49.592 C 194.152 50.472 207.585 51.871 214.992 53.141 C 222.399 54.412 228.908 52.759 234.793 54.127 L 231.336 99.137 C 222.001 98.355 217.914 97.02 206.245 96.531 C 194.577 96.042 191.955 94.27 182.316 94.27 C 177.243 94.27 166.157 94.648 161.084 95.43 C 156.62 96.211 147.718 96.326 141.925 98.445 C 136.131 100.566 132.981 105.141 132.981 109.636 L 132.698 129.564 C 132.698 134.45 134.492 146.744 137.739 149.285 C 140.985 151.825 148.934 153.323 155.631 153.323 L 179.201 152.788 C 193.406 152.788 204.964 153.646 215.573 151.405 C 223.799 149.668 229.044 147.619 233.813 156.51 C 238.582 165.402 233.214 180.566 233.316 191.9 L 185.255 191.495 C 170.934 191.29 144.172 185.137 144.046 204.263 C 143.921 223.39 144.819 239.008 149.892 246.542 C 156.875 256.915 229.184 233.401 246.183 236.219 Z" style=""></path>

<g class="st2">
	 <text y="250" x="400" font-size="14em" font-family="GeneralSans-Medium, Helvetica, sans-serif">Eyob</text>
</g>
</svg>
